<?xml version="1.0" encoding="utf-8"?>
<!-- Generator: Adobe Illustrator 19.1.0, SVG Export Plug-In . SVG Version: 6.00 Build 0)  -->
<svg version="1.1" id="Layer_1" xmlns="http://www.w3.org/2000/svg" xmlns:xlink="http://www.w3.org/1999/xlink" x="0px" y="0px"
	 viewBox="42 -379 584.4 850" style="enable-background:new 42 -379 584.4 850;" xml:space="preserve">
<style type="text/css">
	.st0{clip-path:url(#SVGID_2_);}
	.st1{fill:url(#SVGID_3_);}
	.st2{fill:url(#SVGID_4_);}
	.st3{fill:url(#SVGID_5_);}
	.st4{fill:#263238;}
	.st5{fill:url(#SVGID_6_);}
	.st6{fill:url(#SVGID_7_);}
	.st7{fill:url(#SVGID_8_);}
	.st8{fill:url(#SVGID_9_);}
	.st9{fill:url(#SVGID_10_);}
	.st10{fill:url(#SVGID_11_);}
	.st11{fill:url(#SVGID_12_);}
	.st12{fill:url(#SVGID_13_);}
	.st13{fill:url(#SVGID_14_);}
	.st14{fill:#293942;}
	.st15{fill:#B0BEC5;}
	.st16{fill:#FFEB3B;}
	.st17{fill:#ECEFF1;}
	.st18{fill:#808184;}
	.st19{fill:url(#SVGID_15_);}
	.st20{fill:url(#SVGID_16_);}
	.st21{fill:url(#SVGID_17_);}
	.st22{fill:url(#SVGID_18_);}
	.st23{fill:url(#SVGID_19_);}
	.st24{fill:url(#SVGID_20_);}
	.st25{opacity:0.17;fill:#EFEFEF;enable-background:new    ;}
	.st26{fill:url(#SVGID_21_);}
	.st27{fill:url(#SVGID_22_);}
	.st28{fill:url(#SVGID_23_);}
	.st29{fill:url(#SVGID_24_);}
	.st30{fill:#273D44;}
	.st31{fill:url(#SVGID_25_);}
	.st32{fill:#CFD8DC;}
	.st33{fill:url(#SVGID_26_);}
	.st34{opacity:0.9;}
	.st35{fill:#929497;}
	.st36{opacity:0.8;}
	.st37{fill:#FFFFFF;}
	.st38{fill:url(#SVGID_27_);}
	.st39{fill:url(#SVGID_28_);}
	.st40{fill:url(#SVGID_29_);}
	.st41{opacity:0.6;fill:#4E4D50;enable-background:new    ;}
	.st42{opacity:0.21;fill:#231F20;enable-background:new    ;}
	.st43{fill:url(#SVGID_30_);}
	.st44{opacity:0.39;fill:url(#SVGID_31_);enable-background:new    ;}
	.st45{opacity:0.39;fill:url(#SVGID_32_);enable-background:new    ;}
	.st46{fill:url(#SVGID_33_);}
	.st47{opacity:7.000000e-02;fill:url(#SVGID_34_);enable-background:new    ;}
</style>
<g>
	<defs>
		<rect id="SVGID_1_" x="42.8" y="-379" width="583.6" height="847.4"/>
	</defs>
	<clipPath id="SVGID_2_">
		<use xlink:href="#SVGID_1_"  style="overflow:visible;"/>
	</clipPath>
	<g class="st0">
		<g>
			
				<linearGradient id="SVGID_3_" gradientUnits="userSpaceOnUse" x1="6716.1826" y1="-286.8819" x2="6720.8018" y2="-230.8708" gradientTransform="matrix(1 0 0 -1 -6399.4712 270)">
				<stop  offset="0.2638" style="stop-color:#293942"/>
				<stop  offset="1" style="stop-color:#0F1B21"/>
			</linearGradient>
			<polygon class="st1" points="138.6,396.4 202.7,373.4 480.1,414.6 511.5,515.8 507.5,534.5 480.1,545.3 433.3,557.1 374.7,562 
				197.4,546.1 143.9,528.3 131.6,480.7 			"/>
		</g>
		
			<linearGradient id="SVGID_4_" gradientUnits="userSpaceOnUse" x1="6724.9004" y1="-92.496" x2="6723.6582" y2="-245.3235" gradientTransform="matrix(1 0 0 -1 -6399.4712 270)">
			<stop  offset="0" style="stop-color:#4E5663"/>
			<stop  offset="0.2722" style="stop-color:#A6A8AB"/>
			<stop  offset="0.8094" style="stop-color:#A6A8AB"/>
			<stop  offset="0.9269" style="stop-color:#CFD0D2"/>
		</linearGradient>
		<polygon class="st2" points="138.3,327.4 391.7,365.3 453.5,310.1 537.1,315.4 556.8,325.7 565.4,373.4 534.9,487.3 512.4,538 
			494.8,539.5 479.6,531.6 458.8,514.7 408.2,497 376.8,497 277.1,529 245.2,545 181.9,522.9 134.5,504 102.3,455.8 89.8,412.9 
			85.3,371.9 93,335.4 		"/>
		<g>
			
				<linearGradient id="SVGID_5_" gradientUnits="userSpaceOnUse" x1="2661.4907" y1="1213.2469" x2="2612.5103" y2="1183.3003" gradientTransform="matrix(-0.8368 -0.5475 0.5475 -0.8368 2049.5999 2788.1421)">
				<stop  offset="0" style="stop-color:#929497"/>
				<stop  offset="1" style="stop-color:#293942"/>
			</linearGradient>
			<polygon class="st3" points="500.4,383.5 507.2,358.2 511.2,328 507.4,308.9 504,314.9 506,330.3 501.7,357.3 493.6,380.7 			"/>
			<polygon class="st4" points="491.5,372.2 528.6,386.4 528.9,404.2 517.6,431.2 503.8,445.9 458.9,435.6 471.9,394.9 479,375.1 
							"/>
			
				<linearGradient id="SVGID_6_" gradientUnits="userSpaceOnUse" x1="2797.6396" y1="1446.1453" x2="2735.3311" y2="1376.1846" gradientTransform="matrix(-0.7678 -0.6407 0.6407 -0.7678 1730.5833 3216.6033)">
				<stop  offset="0" style="stop-color:#CFD0D2"/>
				<stop  offset="1" style="stop-color:#293942"/>
			</linearGradient>
			<polygon class="st5" points="507.4,308.9 509.9,327.7 508.3,347 505.1,362.9 500,375.4 488.5,403.1 513.1,415.5 524,385.1 
				528.9,371.5 532.3,352.8 533.2,332.9 532.2,314.2 			"/>
			<g>
				
					<linearGradient id="SVGID_7_" gradientUnits="userSpaceOnUse" x1="2773.394" y1="1415.7418" x2="2757.043" y2="1432.8594" gradientTransform="matrix(-0.7678 -0.6407 0.6407 -0.7678 1730.5833 3216.6033)">
					<stop  offset="0.2638" style="stop-color:#455A65"/>
					<stop  offset="1" style="stop-color:#0F1B21"/>
				</linearGradient>
				<polygon class="st6" points="508.3,347 532.2,353.4 531.7,355.7 507.9,349.2 				"/>
			</g>
			<g>
				
					<linearGradient id="SVGID_8_" gradientUnits="userSpaceOnUse" x1="2784.7954" y1="1432.1241" x2="2768.8567" y2="1448.8099" gradientTransform="matrix(-0.7678 -0.6407 0.6407 -0.7678 1730.5833 3216.6033)">
					<stop  offset="0.2638" style="stop-color:#455A65"/>
					<stop  offset="1" style="stop-color:#0F1B21"/>
				</linearGradient>
				<polygon class="st7" points="509.7,327.7 533.2,332.9 533.2,335.3 509.6,329 				"/>
			</g>
			<g>
				
					<linearGradient id="SVGID_9_" gradientUnits="userSpaceOnUse" x1="3082.4802" y1="1740.2909" x2="3065.345" y2="1758.2296" gradientTransform="matrix(-0.6238 -0.7816 0.7816 -0.6238 1067.0272 3861.9082)">
					<stop  offset="0.2638" style="stop-color:#455A65"/>
					<stop  offset="1" style="stop-color:#0F1B21"/>
				</linearGradient>
				<polygon class="st8" points="505.1,362.9 528.9,371.5 528.4,373.4 504.6,364.7 				"/>
			</g>
			
				<linearGradient id="SVGID_10_" gradientUnits="userSpaceOnUse" x1="2639.5688" y1="1211.9758" x2="2596.2192" y2="1162.2734" gradientTransform="matrix(-0.8223 -0.569 0.569 -0.8223 1980.3074 2886.1421)">
				<stop  offset="0" style="stop-color:#283840"/>
				<stop  offset="1" style="stop-color:#0F1B21"/>
			</linearGradient>
			<polygon class="st9" points="515.5,428.2 490,437.8 476.7,415.5 488.5,381.8 526.1,395.2 			"/>
		</g>
		<g>
			
				<linearGradient id="SVGID_11_" gradientUnits="userSpaceOnUse" x1="6639.7681" y1="-156.65" x2="6730.168" y2="-156.65" gradientTransform="matrix(1 0 0 -1 -6399.4712 270)">
				<stop  offset="0" style="stop-color:#3B2314"/>
				<stop  offset="1" style="stop-color:#754C28"/>
			</linearGradient>
			<polygon class="st10" points="268.1,417.8 262.1,443.4 283.5,461.9 330.7,449.4 327.7,455.3 278.2,473.9 249.5,444.3 
				255.7,421.1 240.3,394.8 242.6,386.6 247.7,379.4 			"/>
			
				<linearGradient id="SVGID_12_" gradientUnits="userSpaceOnUse" x1="6481.8682" y1="-81.9" x2="6677.7681" y2="-81.9" gradientTransform="matrix(1 0 0 -1 -6399.4712 270)">
				<stop  offset="0" style="stop-color:#929497"/>
				<stop  offset="1" style="stop-color:#293942"/>
			</linearGradient>
			<polygon class="st11" points="113.6,319 145.7,312.8 177.3,317.1 205.7,325.9 238.5,344.4 278.3,388.3 265.9,389.9 257.9,391 
				233.5,368.4 212.1,352.8 186.5,339.3 163.8,332.1 138,328.2 95.7,338.4 85.3,371.9 82.4,353.4 89.8,330.2 			"/>
			<polygon class="st4" points="289.7,374.5 300.8,379.5 321.5,413.3 329.9,436.6 330.7,449.4 280.2,468.4 255.1,443.3 263.3,419.9 
				242.6,386.6 247.7,379.4 			"/>
			
				<linearGradient id="SVGID_13_" gradientUnits="userSpaceOnUse" x1="6489.2681" y1="-85.75" x2="6694.7681" y2="-85.75" gradientTransform="matrix(1 0 0 -1 -6399.4712 270)">
				<stop  offset="0" style="stop-color:#FFFFFF"/>
				<stop  offset="1" style="stop-color:#293942"/>
			</linearGradient>
			<polygon class="st12" points="126.2,313.4 89.8,330.2 136.7,319.4 163.3,322.5 194.1,332.6 220.3,346.6 235.6,361 273,402 
				295.3,397.8 284.2,377.5 267.2,358.4 249.7,339.9 227.1,326.3 202,314.5 170.2,309.5 			"/>
			
				<linearGradient id="SVGID_14_" gradientUnits="userSpaceOnUse" x1="6708.5034" y1="-158.0081" x2="6670.8081" y2="-118.5456" gradientTransform="matrix(1 0 0 -1 -6399.4712 270)">
				<stop  offset="0.2638" style="stop-color:#455A65"/>
				<stop  offset="1" style="stop-color:#0F1B21"/>
			</linearGradient>
			<polygon class="st13" points="278,423 305.9,430.2 312.7,415.5 294.3,385.1 254.9,390.7 			"/>
			<g>
				<polygon class="st14" points="172.8,309.9 170.6,309.5 136.7,319.4 139.8,319.7 				"/>
			</g>
			<g>
				<polygon class="st14" points="203.7,315.3 202,314.5 163.3,322.5 165.7,323.3 				"/>
			</g>
			<g>
				<polygon class="st14" points="227.6,326.7 225.7,325.7 194.4,332.7 196,333.6 				"/>
			</g>
			<g>
				<polygon class="st14" points="250.9,341.5 249.7,339.9 220.3,346.6 222.1,348.3 				"/>
			</g>
			<g>
				<polygon class="st14" points="266.4,357.6 264.8,355.8 235.6,361 237.5,363.3 				"/>
			</g>
		</g>
		<g id="left_arm_3_">
			<polygon class="st15" points="532.9,326.8 532.3,352.8 528.9,377.9 524.8,394.3 516.2,420.4 493.4,414.4 471.2,411.6 
				419.3,421.4 395.9,447.3 356.9,480.8 403.6,517 454.1,537.6 504.4,541.8 547.8,522.4 574.8,501 593.1,468.4 596.4,432.8 
				592.2,373.4 578.3,342.6 562.2,326.3 537.1,315.4 535.7,321.5 			"/>
			<polygon class="st4" points="429.6,413.3 513.7,416.5 514.3,423.2 491.1,443.1 429.7,419.1 			"/>
			<polygon class="st16" points="429.6,413.3 490.6,436.4 513.7,416.5 455.6,398.5 			"/>
			<g>
				<polygon class="st17" points="560.2,320.5 581.4,346.3 594.8,382.8 599,420.9 595.6,422.6 588.9,407 578.5,369.7 575.1,357.9 
					572.1,352.6 563.5,337.5 537.1,315.4 				"/>
				<polygon class="st17" points="560.2,320.5 572.4,330.9 584.6,349.6 595.6,383.5 600.8,416.1 599,420.9 592.2,404 581.8,365.8 
					575.3,349.8 566.4,335.3 543.9,316.9 				"/>
			</g>
		</g>
		<g id="right_arm_3_">
			<path class="st15" d="M92.8,405.9l0.1-41.2l37.7-34.1c0,0,34.1,0.5,47.7,3.7c13.7,3.2,52.7,25.4,52.7,25.4l28.3,30.8l9.2,18.5
				l101.1-17.8l36.3-10.4l51.5,17.5l19.4,6.8L446.7,428l-35.9,45.9l-68.2,54.9l-86.5,10.7l-65-28.4l-51.7-27l-34.7-46.3L92.8,405.9
				L92.8,405.9z"/>
			<polygon class="st18" points="410.7,473.9 342.6,528.9 256.1,539.6 191,511.1 178.6,504.6 259,531.8 341.2,519.4 371.9,499.2 
				420.9,461.5 			"/>
			
				<linearGradient id="SVGID_15_" gradientUnits="userSpaceOnUse" x1="6768.9678" y1="-148.85" x2="6876.5679" y2="-148.85" gradientTransform="matrix(1 0 0 -1 -6399.4712 270)">
				<stop  offset="0" style="stop-color:#293942"/>
				<stop  offset="1" style="stop-color:#0F1B21"/>
			</linearGradient>
			<path class="st19" d="M407,376.2l37.9,3.3l32.2,25.6l-28.8,21.6l-27.4,34.8c0,0-7.4-25.9-19.8-42.6
				c-14.4-19.5-31.6-27.9-31.6-27.9L407,376.2z"/>
			<polygon class="st4" points="273.1,408.2 273.1,416.1 297.6,438.2 369.4,417 369.3,410 342.8,390.7 			"/>
			<polygon class="st16" points="273.1,408.2 297.6,430.3 369.3,410 342.8,390.7 			"/>
		</g>
		<g>
			<g id="neck_tube_3_">
				
					<linearGradient id="SVGID_16_" gradientUnits="userSpaceOnUse" x1="6947.3857" y1="-32.765" x2="6506.707" y2="-54.5807" gradientTransform="matrix(1 0 0 -1 -6399.4712 270)">
					<stop  offset="0.2638" style="stop-color:#293942"/>
					<stop  offset="1" style="stop-color:#29373E"/>
				</linearGradient>
				<polygon class="st20" points="504.4,287.4 447.1,294.1 191.3,284.5 125.6,268.1 122.3,251.2 112.5,276.1 101.4,282.5 
					109.2,309.8 95.8,327.4 112.7,320.2 146,314.6 184.2,320.6 231.2,341.6 283,367.6 384.3,383.5 407,376.3 462.9,365.9 
					498.9,367.4 519.8,352.7 522.6,340.4 529.7,332.9 535.7,321.5 538.4,309.7 553.5,287.4 				"/>
				
					<linearGradient id="SVGID_17_" gradientUnits="userSpaceOnUse" x1="6690.7681" y1="-47.5" x2="6849.168" y2="-47.5" gradientTransform="matrix(1 0 0 -1 -6399.4712 270)">
					<stop  offset="0" style="stop-color:#293942"/>
					<stop  offset="1" style="stop-color:#0F1B21"/>
				</linearGradient>
				<polygon class="st21" points="415.5,314.4 372.2,316.7 328.5,317.1 313,312.5 291.3,311 302.2,316.4 331.3,322.9 366.2,324 
					419.4,317.5 449.7,311.6 				"/>
				
					<linearGradient id="SVGID_18_" gradientUnits="userSpaceOnUse" x1="6581.3682" y1="-59.65" x2="6763.5679" y2="-59.65" gradientTransform="matrix(1 0 0 -1 -6399.4712 270)">
					<stop  offset="0" style="stop-color:#293942"/>
					<stop  offset="1" style="stop-color:#162329"/>
				</linearGradient>
				<polygon class="st22" points="181.9,318 211.9,330.1 281.3,336.2 303.8,335.8 343.5,345.8 364.1,346.3 344.7,333.2 301.2,318.1 
					241.8,313 				"/>
				
					<linearGradient id="SVGID_19_" gradientUnits="userSpaceOnUse" x1="6668.168" y1="-93.7" x2="6846.0679" y2="-93.7" gradientTransform="matrix(1 0 0 -1 -6399.4712 270)">
					<stop  offset="0" style="stop-color:#293942"/>
					<stop  offset="1" style="stop-color:#0F1B21"/>
				</linearGradient>
				<polygon class="st23" points="283,367.6 378.8,376.2 420,363 446.6,351.2 372.6,365.6 337.1,361.3 306.1,363.1 268.7,360.3 				
					"/>
				
					<linearGradient id="SVGID_20_" gradientUnits="userSpaceOnUse" x1="6845.5679" y1="-53.25" x2="6925.5679" y2="-53.25" gradientTransform="matrix(1 0 0 -1 -6399.4712 270)">
					<stop  offset="0" style="stop-color:#293942"/>
					<stop  offset="1" style="stop-color:#0F1B21"/>
				</linearGradient>
				<polygon class="st24" points="500.7,322.4 481.2,330.4 446.1,341.4 472.3,327.4 526.1,305.1 				"/>
			</g>
		</g>
		<g id="space_yeti">
			<path class="st25" d="M608.3-71.4c14.5,33,18,65.2,18.4,106c0.7,76-31,152.2-67,191l-2.9,0.5l-82.4,14.2L363,241.4l-51.1-4.1
				l-34.2-87.4l-89.8-43.4l-15-120.3l108.6-88l170.7-47.7l130.4,26.7L608.3-71.4z"/>
			
				<linearGradient id="SVGID_21_" gradientUnits="userSpaceOnUse" x1="6913.9678" y1="184.7" x2="6939.4326" y2="184.7" gradientTransform="matrix(1 0 0 -1 -6399.4712 270)">
				<stop  offset="0.339" style="stop-color:#0D1D24"/>
				<stop  offset="0.7571" style="stop-color:#322E2F"/>
			</linearGradient>
			<polygon class="st26" points="539.9,76.3 539.4,89.2 514.5,94.3 514.5,81.6 			"/>
			<path class="st4" d="M474.7-161.1c-0.2,0-0.4,0.1-0.6,0.2c-2.7,1.9,5,17.9,17.3,35.8c12.3,17.8,24.5,30.8,27.2,28.9
				c0.1-0.1,0.1-0.1,0.2-0.2l0,0c0.1,0,0.1-0.1,0.2-0.1c41.8-28.6,57.7-64.2,49-105.9c-2.3-11-10.5-31.7-18.6-44.3
				c-7.3-11.5-15.3-11.5-14.7,0.1C536.7-209.2,505-181.8,474.7-161.1z"/>
			<path class="st4" d="M564.5,262.5l0.2,18.5c0.1,15.1-104.3,28.4-233.3,29.6s-233.7-9.9-233.8-25l-0.2-18.5L564.5,262.5z"/>
			
				<linearGradient id="SVGID_22_" gradientUnits="userSpaceOnUse" x1="6978.0312" y1="-16.3425" x2="6488.7046" y2="-16.3425" gradientTransform="matrix(1 -9.884079e-03 -9.884079e-03 -1 -6398.2202 314.8676)">
				<stop  offset="0" style="stop-color:#929592"/>
				<stop  offset="0.3887" style="stop-color:#7B797A"/>
				<stop  offset="1" style="stop-color:#273D44"/>
			</linearGradient>
			<path class="st27" d="M330.7,237.4c-129,1.3-233.4,14.5-233.3,29.6c0.1,15.1,104.8,26.3,233.8,25s233.4-14.5,233.3-29.6
				C564.3,247.4,459.6,236.2,330.7,237.4z"/>
			
				<linearGradient id="SVGID_23_" gradientUnits="userSpaceOnUse" x1="6877.1089" y1="211.5276" x2="6999.5659" y2="189.66" gradientTransform="matrix(1 -9.884079e-03 -9.884079e-03 -1 -6398.2202 314.8676)">
				<stop  offset="0" style="stop-color:#0F1B21"/>
				<stop  offset="1" style="stop-color:#293942"/>
			</linearGradient>
			<polygon class="st28" points="396.2,275 278.8,266 165.8,199 96.9,57.1 91.5,-80.5 231.4,-197.4 347.4,-250.4 482.3,-217.2 
				570.1,-141 603,-96.7 607,-80.3 604.4,-74.3 588.5,-47 558.1,-14.4 505.2,26.9 505.3,36.8 502.2,98.6 567.7,148.4 560.1,225.4 
							"/>
			
				<linearGradient id="SVGID_24_" gradientUnits="userSpaceOnUse" x1="6501.6992" y1="-9.3426" x2="6943.7236" y2="-9.3426" gradientTransform="matrix(1 -9.884079e-03 -9.884079e-03 -1 -6398.2202 314.8676)">
				<stop  offset="0" style="stop-color:#F2C086"/>
				<stop  offset="9.101394e-02" style="stop-color:#D37A6D"/>
				<stop  offset="0.3157" style="stop-color:#CFD0D2"/>
				<stop  offset="0.9595" style="stop-color:#A6A8AB"/>
				<stop  offset="0.9637" style="stop-color:#B5ADA3"/>
				<stop  offset="0.9723" style="stop-color:#D0B596"/>
				<stop  offset="0.9812" style="stop-color:#E3BB8D"/>
				<stop  offset="0.9903" style="stop-color:#EEBF87"/>
				<stop  offset="1" style="stop-color:#F2C085"/>
			</linearGradient>
			<path class="st29" d="M473,241.7l36.6-4.3l37.8-5.9l0.3,27.2c0.1,11.6-97.7,21.9-218.5,23.1s-218.8-7.2-218.9-18.8l-0.3-27.2
				L473,241.7z"/>
			<path class="st30" d="M218.4,251.2c-65.8-3.5-108.2-9.8-108.3-17.4c-0.1-7.6,42.3-14.8,108.3-19.9V251.2z"/>
			<path class="st15" d="M547.4,231.3l0.3,30.9c0.1,11.6-97.7,20.8-218.5,22s-218.8-9.8-218.9-21.4l-0.3-29.1
				c0.1,5.4,28.7,13.4,106.5,17.3l-5.6-9.5l-24.4-5.7l-28.5-7.1c-10.5-9.8-39-39.1-39-39.1l-17.3-26.3l78.3-56l50,18.7l44.1,21.6
				l22.3,58.1l14.7,38.1l159.7,8.6C471.5,251.4,547.4,232.4,547.4,231.3z"/>
			<path class="st15" d="M55.3,26c-1.5-153.3,123.8-284.9,276.9-293.3c90.5-4.9,170.4,27.2,195,83.9l-110.7,4.1L155.6-33.6
				C155.6-33.6,55.6,57,55.3,26z"/>
			<path class="st4" d="M155.7-161.6c0.2,0,1.8,1.4,2,1.5c3,1.9-1.8,19.8-14.4,39c-12.6,19.1-28,32.1-30.9,30.2
				c-0.1-0.1-2.1-1.5-2.2-1.5c-44.8-29.5-62.3-66.8-54-111.1c2.2-11.7,9.4-33.4,18.7-47.3c7.9-11.8,15.3-10.5,15.6-0.2
				C91.6-211.2,123.4-183.1,155.7-161.6z"/>
			
				<linearGradient id="SVGID_25_" gradientUnits="userSpaceOnUse" x1="6507.6162" y1="40.2946" x2="6609.3398" y2="40.2946" gradientTransform="matrix(1 -9.884079e-03 -9.884079e-03 -1 -6398.2202 314.8676)">
				<stop  offset="0.4162" style="stop-color:#4E5663"/>
				<stop  offset="0.6682" style="stop-color:#273D44"/>
				<stop  offset="1" style="stop-color:#273D44"/>
			</linearGradient>
			<path class="st31" d="M151.9,218.3c17.8,11.6,59,23.3,59,23.3v3.7c0,0-47.5-3.7-66.3-6.5c-9.5-1.4-18.8-3.1-22.7-4.7
				c-3.2-1.4-3.3-1.2-4.2-6.5s-9.2-53.4-9.2-53.4S127,202,151.9,218.3z"/>
			<path class="st32" d="M475.7-109.4L369.3-78.9c0,0-12.1,1.2-27.7,7.4s-59.9,33.3-59.9,33.3s-23.9,17.9-27.1,22.7
				c-2.6,4-17.3,34.9-18.1,45.3s11.3,91.7,11.3,91.7l36.5,17.5l32.9,97.8l50.8,5.8h108.9l49.7-7.7c0,0-4.6-92.8-3.2-133.9
				c1.4-41.1,15.5-116.3,15.5-116.3l9.4-11.4l25.5-11.4L558.6-56l-31.4-5.8l25.2-19.3L518.5-92l-27.1,8.2L475.7-109.4z"/>
			
				<radialGradient id="SVGID_26_" cx="6789.7695" cy="200.8391" r="184.9707" gradientTransform="matrix(1 -9.884079e-03 -9.884079e-03 -1 -6398.2202 314.8676)" gradientUnits="userSpaceOnUse">
				<stop  offset="0" style="stop-color:#0F1B21;stop-opacity:0"/>
				<stop  offset="0.6763" style="stop-color:#0F1B21;stop-opacity:0.6512"/>
				<stop  offset="0.7582" style="stop-color:#19272E;stop-opacity:0.7396"/>
				<stop  offset="0.8865" style="stop-color:#24343B;stop-opacity:0.8777"/>
				<stop  offset="1" style="stop-color:#283840"/>
			</radialGradient>
			<path class="st33" d="M194.3,108.5L180-15.6l6-47.2l162.9-65l55-16.8l33.5-2.6l37.7-1.7l61.8,6.2l54.4,28.2l14.9,36.3l-1.7,3.9
				L588.6-47l-30.5,32.6L535.8,3l3.1-18.2l9.4-11.4L573.8-38l-15.2-17.9l-31.4-5.8L552.4-81c0,0-23.7-5.9-32.4-5.9
				s-28.6,3.1-28.6,3.1l-19.2-7.6l-67.9,3.2c0,0-48.5,10.8-62.8,16.7s-59.9,33.3-59.9,33.3s-23.5,17.3-27.1,22.7
				c-3.6,5.4-16.7,35-18.1,45.3S249,131.4,249,131.4L194.3,108.5z"/>
			<g class="st34">
				<polygon class="st35" points="422.4,217 401.2,206.5 395.1,211.1 377.4,195.4 397.9,224.5 403.2,217.7 423.3,226.5 434.5,216.7 
					443.4,221.5 452.7,199.1 452,198.1 442.3,213.8 435.1,207.6 				"/>
			</g>
			<g class="st36">
				<path class="st37" d="M474.4,118.9c-4.6-5.4-7.5-13.7-7.5-23c0-16.3,9-29.5,20-29.5s20,13.2,20,29.5c0,11-4,20.5-10,25.6
					c-0.2,0-0.5-0.1-0.7-0.1c-4.2-1.7-9.8-2.8-15.9-2.8C478.3,118.6,476.3,118.8,474.4,118.9z"/>
				
					<linearGradient id="SVGID_27_" gradientUnits="userSpaceOnUse" x1="6870.668" y1="175.2" x2="6892.6279" y2="175.2" gradientTransform="matrix(1 0 0 -1 -6399.4712 270)">
					<stop  offset="0" style="stop-color:#293942"/>
					<stop  offset="1" style="stop-color:#0F1B21"/>
				</linearGradient>
				<ellipse class="st38" cx="482.2" cy="94.8" rx="11" ry="18"/>
				<ellipse class="st37" cx="478.1" cy="81.6" rx="4.1" ry="6.8"/>
			</g>
			<g class="st34">
				<path class="st37" d="M339.4,125.8c-6.8-6.5-11.3-17.4-11.3-29.8c0-20.1,11.8-36.4,26.4-36.4s26.4,16.3,26.4,36.4
					c0,10.6-3.3,20.1-8.6,26.8c-3.2-0.4-6.5-0.6-10-0.6C353.6,122.2,345.7,123.5,339.4,125.8z"/>
				
					<linearGradient id="SVGID_28_" gradientUnits="userSpaceOnUse" x1="6731.6299" y1="175.1" x2="6760.167" y2="175.1" gradientTransform="matrix(1 0 0 -1 -6399.4712 270)">
					<stop  offset="0" style="stop-color:#293942"/>
					<stop  offset="1" style="stop-color:#0F1B21"/>
				</linearGradient>
				<ellipse class="st39" cx="346.4" cy="94.9" rx="14.3" ry="21"/>
				<ellipse class="st37" cx="339.9" cy="79.9" rx="5.3" ry="7.9"/>
			</g>
			<path class="st35" d="M330.1,33.3c6.3-9.9,17.7-15.8,29.7-14.1c12,1.6,21.3,10.4,24.7,21.7c-6.9-5.3-16-9.2-26.3-10.6
				C347.9,28.8,338.1,30.1,330.1,33.3z"/>
			
				<linearGradient id="SVGID_29_" gradientUnits="userSpaceOnUse" x1="6866.668" y1="226.7246" x2="6910.5679" y2="226.7246" gradientTransform="matrix(1 0 0 -1 -6399.4712 270)">
				<stop  offset="0" style="stop-color:#A0A2A4"/>
				<stop  offset="1" style="stop-color:#9D867B"/>
			</linearGradient>
			<path class="st40" d="M467.2,55.1c1.2-11.2,7.7-20.5,17.4-23s19.9,2.4,26.5,11.6c-7.1-2.5-15.3-3-23.6-0.8
				C479.2,45,472.2,49.4,467.2,55.1z"/>
			<path class="st41" d="M447.1,174.6c-4.2,3.2-14.4,7.7-14.4,7.7c18.7-3.2,26-10.4,26-10.4c-3.4-2.4-6.8-15.2-6.8-15.2
				c-1,1.8-1.5,3.9-1.7,6c-0.4,3.4-0.1,6.5-0.1,6.5c-38.4,7.2-62.8,6.7-61.3,7.2C404.8,182.2,447,174.7,447.1,174.6z"/>
			<path class="st42" d="M522.4,167.3c0.5-2.9,0.9-5.9,1.3-8.9c0.9,40.7,2.8,73.9,2.8,73.9l-14,2.7l-11.6,1.8
				C510.8,225,517.6,198.8,522.4,167.3z"/>
			
				<radialGradient id="SVGID_30_" cx="6762.1865" cy="143.3471" r="156.2983" gradientTransform="matrix(1 0 0 -1.4143 -6399.4712 304.2477)" gradientUnits="userSpaceOnUse">
				<stop  offset="0" style="stop-color:#E6E7E8"/>
				<stop  offset="0.17" style="stop-color:#E3E4E5"/>
				<stop  offset="0.3163" style="stop-color:#D8DBDC"/>
				<stop  offset="0.4538" style="stop-color:#C6CBCD"/>
				<stop  offset="0.586" style="stop-color:#ADB5B7"/>
				<stop  offset="0.7143" style="stop-color:#8D989C"/>
				<stop  offset="0.8398" style="stop-color:#66757A"/>
				<stop  offset="0.9607" style="stop-color:#384C52"/>
				<stop  offset="1" style="stop-color:#273D44"/>
			</radialGradient>
			<path class="st43" d="M337,217.6l39.5,23.3l-27.3-1.1l-32.7-4.7l-32.3-95.9l-36.5-17.5c0,0-12.6-79.2-11.3-91.7
				s15.9-41.2,18.1-45.3c2.2-4.1,27.1-22.7,27.1-22.7L319-59.7l15.5-8.3c0,0,7.6-3.8,16.6-6.3c2.9-0.8,6.4-2,9.4-2.7
				c4.9-1.2,8.8-1.7,8.8-1.7l-30,17.3L317-46.5l-22.3,17.4l-12.2,18L270,23.1l4.1,42.7l10.3,47.4l17.2,40.6L337,217.6z"/>
			<polygon class="st42" points="435.1,-73.6 440.8,-76.3 490.8,-89.9 496.3,-82.9 501.3,-60 503.5,-31 469.6,-57.4 444.7,-70.6 			
				"/>
			<g>
				<path class="st32" d="M369.2-78.7c0,0,43-30,55.5-31.7c7.8-1.1,44.8-7.2,44.8-7.2s12.2,11.4,15.4,15c8.6,9.7,11.9,21,14.3,27.8
					c2,5.7,3.7,34.2,3.7,34.2s-18.6-17.6-28-22.7s-27.7-9.3-27.7-9.3"/>
			</g>
			<g class="st36">
				
					<linearGradient id="SVGID_31_" gradientUnits="userSpaceOnUse" x1="6920.082" y1="164.5024" x2="6649.0703" y2="164.5024" gradientTransform="matrix(1 0 0 -1 -6399.4712 270)">
					<stop  offset="0" style="stop-color:#E6968B"/>
					<stop  offset="0.4658" style="stop-color:#A4A7A9"/>
					<stop  offset="0.7085" style="stop-color:#A8ACAD"/>
					<stop  offset="0.9757" style="stop-color:#293942"/>
				</linearGradient>
				<path class="st44" d="M475.8,81.9c9.3-1.4,24.4-1.2,24.4-1.2s16.8,2.6,23.8,7l1.1-12.4l-5.9-1.3l-16.5-2.8
					c0,0-18.9-0.8-28.9,0.2c-10,0.9-30.8,7.8-30.8,7.8s-7.2-2.4-13.4-2.4s-12.8,1-12.8,1s-16.5-16.6-77.2-11.7
					c-23.3,1.9-63.3,8.7-63.3,8.7l-34.7,6.9l2.2,13.2l45.7-8.4l5.6-0.3l1.9,12.5c0,0,7.2,28.6,9.1,34.4s11.5,10.2,21.2,11.2
					s28.1,1.5,28.1,1.5l37-5.2c0,0,7.7-1.8,12.1-6.8s6.8-13.7,6.8-13.7l4.5-26.1c0,0,8.1-4.6,14.3-4.6c1.3,0,2.5,0.2,3.6,0.5l0,0
					l12.7,3.6l6.6-4.2c2.4-2.2,6.3-3.4,6.3-3.4S466.5,83.2,475.8,81.9z M402.1,108.5c-0.8,7-2.7,16.2-7.6,19.6
					c-4.9,3.4-40.2,7-40.2,7l-27.6-1.7c0,0-8.3-1.8-9.8-6.6c-1-3.3-9.2-32-9.1-37.3c0-5.3,5.1-7.6,5.1-7.6s16-5.5,34.7-6
					s44.5,5.6,44.5,5.6s11.5,2.4,12.3,4.4C405.3,87.9,403,101.6,402.1,108.5z"/>
				
					<linearGradient id="SVGID_32_" gradientUnits="userSpaceOnUse" x1="6929.6743" y1="129.2553" x2="6819.2466" y2="163.7432" gradientTransform="matrix(1 0 0 -1 -6399.4712 270)">
					<stop  offset="0" style="stop-color:#E6968B"/>
					<stop  offset="0.4658" style="stop-color:#A4A7A9"/>
					<stop  offset="0.7085" style="stop-color:#A8ACAD"/>
					<stop  offset="0.9757" style="stop-color:#293942"/>
				</linearGradient>
				<path class="st45" d="M523.3,132.9c-6.1,2.2-26.3,6.6-31.1,6.9c-6,0.4-17.5-0.6-17.5-0.6s-11.7-1.8-15.8-2.7l-5.3-17.8
					c0.1,0.2,8.7,7,8.8,7.1c9.5,9.2,41.4,5.3,50.6-0.2c1.1-0.6,9.1-3.8,10.1-5.1L523.3,132.9z"/>
			</g>
			<path class="st4" d="M537.9,70.9c0,0-17.3-5.5-29.1-6.4c-11.8-0.9-23.4-0.9-36.2,1.1c-9.9,1.5-24.8,8.3-24.8,8.3
				s-5.9-3.1-12.1-3.1c-6.2,0-16.4,2.2-16.4,2.2s-12.3-18.7-73-13.8c-14.1,1.1-24.1,4.1-36.2,6.3c-8,1.4-16.9,3.2-30.5,5.2
				c-11.2,1.6-38.4,7.2-38.4,7.2l1.7,12.8l53.7-9.5l5.6-0.3c0,0,1.2,5.9,1.9,12.5c1.2,10.6,6,23.4,7.6,29.3
				c3,10.9,15.1,15.6,22.7,16.2s16.6,1.5,28.1,1.5s25.8-1.7,32.2-3.6s9.1-2.4,13.5-7.4c4.4-5,5.5-14.3,5.5-14.3l6.7-26.5
				c0,0,8.1-4.6,14.3-4.6c6.2,0,10.6,3.9,10.6,3.9s5.4,24.2,7.3,28.7c1.9,4.5,3.3,7.6,7.9,11.7c4.7,4,18.8,5.4,18.8,5.4
				s11.4,1,17.5,0.6s23.9-4.9,26.5-7c3.8-3.1,7.4-10.4,9-14.4s6.2-23.1,6.2-23.1l4.6-6.4c0,0,3.6-7.4,2.2-9.2S537.9,70.9,537.9,70.9
				z M406.1,102.9c-1.8,7.2-3.6,19.3-8.4,22.7c-6,4.3-36.1,4.2-36.1,4.2l-24.5-1.5c0,0-10.8-1-14-10.1c-1.1-3.2-6.3-23-6.8-34.7
				c-0.2-5.4,3.9-6.9,3.9-6.9s16-5.4,34.7-6s36.1,2.5,40.9,3.6s12.4,4.4,13.3,6.4C410.6,83.7,407.9,95.9,406.1,102.9z M517.7,120.1
				c-9.2,5.5-41.1,9.4-50.6,0.2c-6.2-6-11.9-29.2-11.3-33.3c0.6-4,8.3-6.5,8.3-6.5s7-3.7,16.4-5c9.3-1.4,15.8-1.3,23.9-0.6
				c8.9,0.8,16.7,2.4,21.8,5c5.4,2.7,4,5.7,2.7,11.6C527.1,99.8,524.3,116.1,517.7,120.1z"/>
			<path class="st25" d="M608.3-71.4c14.5,33,18,65.2,18.4,106c0.7,76-31,152.2-67,191l-2.9,0.5l-82.4,14.2L363,241.4l-51.1-4.1
				l-34.2-87.4l-89.8-43.4l-15-120.3l108.6-88l170.7-47.7l130.4,26.7L608.3-71.4z"/>
			
				<linearGradient id="SVGID_33_" gradientUnits="userSpaceOnUse" x1="6970.2588" y1="73.3023" x2="6582.9229" y2="66.6384" gradientTransform="matrix(1 -9.884079e-03 -9.884079e-03 -1 -6398.2202 314.8676)">
				<stop  offset="0.3806" style="stop-color:#293942"/>
				<stop  offset="1" style="stop-color:#1F2C32"/>
			</linearGradient>
			<path class="st46" d="M165.4,106.5l96.5,45.3l32.7,106.3c0,0,33.3,2.3,68.5,4.2c35.2,2,82.6,0.2,111.2-2
				c28.5-2.2,72.7-13.8,72.7-13.8l12.9-21.2c0,0-57.6,12.9-83.6,14.4s-73.8,2.8-99.8,1.1s-60-5.9-60-5.9L284.2,139l-88.3-42.3
				L165.4,106.5z"/>
			<path class="st4" d="M201.3,45.8c3,65.4-21.3,119.5-59.5,123.2c-5,0.4-31.7-3.5-31.7-3.5l-6.7-8.2c-22-18.7-39.1-55-43.2-98
				C55.9,14.1,67-26.6,86.9-48.5l12.2-16.4c0,0,13.6-1,18.6-1.2C156-67.4,198.3-20,201.3,45.8z"/>
			<path class="st15" d="M96.8-64.7c-35.4,3.4-59.1,57.8-53,121.4s39.7,112.5,75.1,109.1s59.1-57.7,53-121.4
				C165.8-19.2,132.1-68.1,96.8-64.7z"/>
			<path class="st4" d="M131.1,53.4c3,31.2-10.4,57.9-29.9,59.8l-1.2-12.3c-15.2,1.5-29.5-17.1-31.8-41.4s8.2-45.2,23.4-46.7
				L90.4,0.5C109.9-1.4,128.1,22.2,131.1,53.4z"/>
			<path class="st4" d="M610.2-102.3c3.9,11.7-4.4,24.3-4.4,24.3l-2.1-4.4l-8-14.8l-7.8-14.6l-0.1-0.1
				c-33.8-19.2-80.3-25.9-110.5-25.6c-131.1,1.3-225.8,49.1-294,122.1c0,0.1-3.4,0.4-3.4,0.4l-11.4-0.4c0,0-12.1-37.8-26.6-43.7
				C182.1-165.2,292.3-255.4,433-241.5C524.7-232.5,588.8-160,610.2-102.3z"/>
			<path class="st16" d="M602.6-123.3c4.4,8.3,13.2,21.5,8.2,33.4c1.1-10.6-10.5-22.5-19.2-27.8c-10.3-6.2-22.1-11.4-34.5-15.5
				c-28.7-9.5-60.4-13.6-82.2-13.4c-135.5,1.3-237.6,54.3-306.4,131.3c-10.3-20.1-20.8-35.3-37-44.9c40.2-106,160.7-203,301.4-189.1
				C512.5-241.5,573.7-177.6,602.6-123.3z"/>
		</g>
		<g>
			<path class="st17" d="M140.2,457c8.7,4.4,18.8,8.1,31.9,6.5c11.1-1.4,17.9-7.5,22.7-15.3c4.8-7.8,11.1-24,7.9-44.9
				s-7.9-28.7-15.5-41.2c-7.7-12.4-17.4-24.5-29.9-28.6c-10.3-3.4-17.9-3.7-27.5-1.7s-13.3,4.4-20.6,10.7s-8.8,9.5-12.8,22
				s-0.8,26.2,1.9,40.2c2.7,14,7.7,21.2,15.6,30.6C121.8,444.6,131.6,452.6,140.2,457z"/>
			<path class="st17" d="M133.6,457c8.7,4.4,18.8,8.1,31.9,6.5c11.1-1.4,17.9-7.5,22.7-15.3c4.8-7.8,11.1-24,7.9-44.9
				s-7.9-28.7-15.5-41.2c-7.7-12.4-17.4-24.5-29.9-28.6c-10.3-3.4-17.8-3.7-27.5-1.7c-9.6,2-13.3,4.4-20.6,10.7s-8.8,9.5-12.8,22
				s-0.8,26.2,1.9,40.2s7.7,21.2,15.6,30.6C115.2,444.6,124.9,452.6,133.6,457z"/>
		</g>
		<g>
			<g>
				<path class="st4" d="M124.4,410.1c-11.5-17.9-14.1-36.4-1.3-45c5.4-3.6,11.3-3.7,16.8-1.3l1.7,10.4c-4.5-1.8-8.3-2.2-12.4,0.5
					c-7.2,5-5.3,17.4,1.6,28.2c0.2,0.5,0.7,1.2,1.2,1.7c-0.5-5.5,0.9-13.2,6-16.6c7.8-5.2,19.1-2.9,27.5,10.3
					c7.2,11.6,7.1,25.1-2.5,31.6C150.1,438.8,135.5,427.5,124.4,410.1z M158,404.3c-4.8-7.7-11.4-8.4-16-5.2
					c-3.6,2.5-5.5,7.7-4.7,13.5c4.6,6.5,12.2,12.6,18.9,8.2C161.9,417.3,161.2,409.4,158,404.3z"/>
			</g>
		</g>
		<g>
			
				<linearGradient id="SVGID_34_" gradientUnits="userSpaceOnUse" x1="6590.0605" y1="506.305" x2="6848.7041" y2="-233.3527" gradientTransform="matrix(1 0 0 -1 -6399.4712 270)">
				<stop  offset="0" style="stop-color:#4E5663"/>
				<stop  offset="0.6682" style="stop-color:#283841"/>
				<stop  offset="1" style="stop-color:#0F1B21"/>
			</linearGradient>
			<path class="st47" d="M591.5,179.8c0.2-0.3,0.3-0.6,0.5-0.9c0.3-0.5,0.6-1.1,0.9-1.7c17.9-35.1,31.2-79,33.8-124
				c0.4-7.4,0.7-14.8,0.6-22.2c-0.1-9.5-0.5-18.7-1.3-27.7c-1.8-25.2-6-47.6-15.2-70.1c-1.4-3.7-2.9-7.4-4.5-11.1l0.2-0.4l0.4-0.8
				c0.9-1.7,3.1-5.8,4.2-10.9l0,0v-0.1v0.1c4.9-11.9-3.7-25.1-8-33.4c-8.3-16-19.4-32.7-32.8-48.7c0.9-9.7,0.3-19.8-1.9-30.3
				c-2.3-11-10.5-31.7-18.6-44.3c-7.3-11.5-15.3-11.5-14.7,0.1c0,0.2,0,0.3,0,0.5c-1.5,1.2-2.4,3.8-2.2,7.9
				c0.3,5.5-0.2,10.7-1.3,15.8c-1.1,3.3-2.6,6.5-4.2,9.6c-18.9-14-40.2-25.2-63.5-31.6c-3-1.4-6-2.8-9.1-4.1
				c-2.1-0.9-4.3-1.8-6.5-2.6c-13.2-5-27.6-9-42.8-11.8c-2.6-0.5-5.1-0.9-7.7-1.3c-7.7-1.2-15.6-2.1-23.7-2.7
				c-13.5-0.9-27.4-1.1-41.5-0.3c-2.4,0.1-4.8,0.3-7.2,0.5c-73.5,5.9-140.1,40.1-188.7,91.2c-20.9-16.4-38.7-36.3-44.2-61.4
				c-0.4-2.7-0.6-5.5-0.7-8.3c0-2.1-0.4-3.9-1-5.2c0-0.2,0-0.3,0-0.5c-0.3-10.3-7.7-11.6-15.6,0.2c-9.3,13.8-16.5,35.6-18.7,47.3
				c-2.5,13.7-2.6,26.8-0.2,39.1c3.3,20.9,14.7,37.9,32.6,55.2C78.4-88.8,68.8-64.3,63.4-41.8C52.6-26,45.5-3.1,43.6,23.2
				c-1.1,11.6-1.1,24,0,36.7c4.7,52.8,30.2,92.8,58.4,103.6l0,0l9.3,14.3c-1.6-2.3-2.5-3.6-2.5-3.6s8,45.7,9.4,53.9
				c-5.4,2.1-7.1,3.6-7.6,5c-0.2,2.1-0.2,4.2-0.2,4.2l0.1,20.8c-4.7,1.8-10,4.5-11.6,6.4c-1.7,1.2-1.1,2.9-1.1,4.5l0.2,16.6
				c0,2.7,2.3,4.3,6.5,6.2l5.1,18.1l-13.3,17.5l-6.2,2.9l-7.4,23.2l2.9,18.4l4.4,41l12.5,42.9l32.2,48.2l3.5,1.4l3.3,12.6l-4.9,1.7
				v27.2l7.6,4.5l0.3,0.1l0.6,51.9l7.5,56.4h-0.2l1.3,26.8l5.1,58.9l10.3,18l14.2,19.4l9.2,10.5l12.1,16.2l31.1,9.4l3,0.3l2,0.3
				v-0.1l27,2.9v0.1l3,0.2l4.1,0.4l23.5-6.6l6.1-1.5v-0.2l0.6-0.2l18.3-13.6l5.9-21.6l-5.8-15.3l-1.4-0.4l-10.5-25.8l-2.9-8.8
				l0.8,2.5l1-2.6l-5.1-11.4l-0.5-0.1l15.2-46.3l15.6-40.9l14.4-0.2l7,11.3l4.8,17.9l0.3,0.1l4.7,24.7l2.8,44.8l33.4,25.9l42.2,20.2
				v1.5l23.7,10.8l32.4,1l6.8,0.2l29-7.9l9.2-18.4l-2.3-19.7l-13-16.9h-3.2l-5.7-7.3l-9.4-10.6l-0.2-3.7l-10.9-9.9l2.3-40.1
				l7.7-51.5l2.9-48.9l8.3-5.7l1-14.3c4.8-2.2,9.7-4.5,14-6.4l10.2-4.6l0.4-0.3c0.3-0.2,0.5-0.3,0.5-0.3
				c0.6-0.5,26.1-20.7,26.1-20.7l-0.6,0.3l0.6-0.5l18.3-32.6l3.4-35.6l-0.7-10.2l3.3-1.7l1.8-4.8l-5.2-32.6L585,349.7L572.7,331
				l-12.2-10.4l-16.3-3.6l0,0l-6.8-1.5h-0.1l1.3-5.8l13.2-19.6c2-0.8,4.5-1.4,6.9-2.8c4-2,6.1-4.1,6.1-6.3l-0.2-18.5
				c-0.1-3.6-6.1-7-16.9-10l-0.1-6.5l12.5-20.6C571.1,213.4,581.7,197.9,591.5,179.8z M539-15.1c0,0-14.1,75.2-15.5,116.3
				s3.2,133.9,3.2,133.9l-49.7,7.7H368.1l-50.8-5.8l-32.9-97.8l-36.5-17.5c0,0-12.1-81.3-11.3-91.7s15.5-41.3,18.1-45.3
				c3.1-4.8,27.1-22.7,27.1-22.7s44.3-27.1,59.9-33.3c15.6-6.2,27.7-7.4,27.7-7.4s43-30,55.5-31.7c7.8-1.1,44.8-7.2,44.8-7.2
				s8,7.4,12.7,12.2l0,0l0,0c0.4,0.5,0.9,1,1.3,1.4c0.1,0.1,0.2,0.2,0.3,0.3c0.4,0.4,0.7,0.8,1,1.1c5.3,6.1,8.4,12.2,10.5,17.5
				l23-6.9l33.9,10.9l-25.2,19.3l31.4,5.8l15.2,17.9l-25.5,11.4L539-15.1z"/>
		</g>
	</g>
</g>
</svg>
