<svg id="Layer_1" data-name="Layer 1" xmlns="http://www.w3.org/2000/svg" xmlns:xlink="http://www.w3.org/1999/xlink" viewBox="0 0 584.54 890.51"><defs><style>.cls-1{fill:none;}.cls-2{clip-path:url(#clip-path);}.cls-3{fill:url(#linear-gradient);}.cls-4{fill:url(#linear-gradient-2);}.cls-5{fill:url(#linear-gradient-3);}.cls-6{fill:#263238;}.cls-7{fill:url(#linear-gradient-4);}.cls-8{fill:url(#linear-gradient-5);}.cls-9{fill:url(#linear-gradient-6);}.cls-10{fill:url(#linear-gradient-7);}.cls-11{fill:url(#linear-gradient-8);}.cls-12{fill:url(#linear-gradient-9);}.cls-13{fill:url(#linear-gradient-10);}.cls-14{fill:url(#linear-gradient-11);}.cls-15{fill:url(#linear-gradient-12);}.cls-16{fill:#293942;}.cls-17{fill:#b0bec5;}.cls-18{fill:#ffeb3b;}.cls-19{fill:#eceff1;}.cls-20{fill:#808184;}.cls-21{fill:url(#linear-gradient-13);}.cls-22{fill:url(#linear-gradient-14);}.cls-23{fill:url(#linear-gradient-15);}.cls-24{fill:url(#linear-gradient-16);}.cls-25{fill:url(#linear-gradient-17);}.cls-26{fill:url(#linear-gradient-18);}.cls-27{fill:#efefef;opacity:0.17;}.cls-27,.cls-43,.cls-44,.cls-46,.cls-47,.cls-49{isolation:isolate;}.cls-28{fill:url(#linear-gradient-19);}.cls-29{fill:url(#linear-gradient-20);}.cls-30{fill:url(#linear-gradient-21);}.cls-31{fill:url(#linear-gradient-22);}.cls-32{fill:#273d44;}.cls-33{fill:url(#linear-gradient-23);}.cls-34{fill:#cfd8dc;}.cls-35{fill:url(#radial-gradient);}.cls-36{opacity:0.9;}.cls-37{fill:#929497;}.cls-38{opacity:0.8;}.cls-39{fill:#fff;}.cls-40{fill:url(#linear-gradient-24);}.cls-41{fill:url(#linear-gradient-25);}.cls-42{fill:url(#linear-gradient-26);}.cls-43{fill:#4e4d50;opacity:0.6;}.cls-44{fill:#231f20;opacity:0.21;}.cls-45{fill:url(#radial-gradient-2);}.cls-46,.cls-47{opacity:0.39;}.cls-46{fill:url(#linear-gradient-27);}.cls-47{fill:url(#linear-gradient-28);}.cls-48{fill:url(#linear-gradient-29);}.cls-49{opacity:0.07;fill:url(#linear-gradient-30);}</style><clipPath id="clip-path"><rect class="cls-1" x="0.03" y="43.11" width="583.6" height="847.4"/></clipPath><linearGradient id="linear-gradient" x1="6716.19" y1="115.44" x2="6720.81" y2="171.45" gradientTransform="matrix(1, 0, 0, -1, -6442.25, 1094.43)" gradientUnits="userSpaceOnUse"><stop offset="0.26" stop-color="#293942"/><stop offset="1" stop-color="#0f1b21"/></linearGradient><linearGradient id="linear-gradient-2" x1="6724.91" y1="309.82" x2="6723.67" y2="157" gradientTransform="matrix(1, 0, 0, -1, -6442.25, 1094.43)" gradientUnits="userSpaceOnUse"><stop offset="0" stop-color="#4e5663"/><stop offset="0.27" stop-color="#a6a8ab"/><stop offset="0.81" stop-color="#a6a8ab"/><stop offset="0.93" stop-color="#cfd0d2"/></linearGradient><linearGradient id="linear-gradient-3" x1="2710.62" y1="1602.83" x2="2661.64" y2="1572.88" gradientTransform="translate(1834.91 3565.73) rotate(-146.78)" gradientUnits="userSpaceOnUse"><stop offset="0" stop-color="#929497"/><stop offset="1" stop-color="#293942"/></linearGradient><linearGradient id="linear-gradient-4" x1="2856.21" y1="1829.71" x2="2793.9" y2="1759.75" gradientTransform="translate(1494.51 3973.16) rotate(-140.27)" gradientUnits="userSpaceOnUse"><stop offset="0" stop-color="#cfd0d2"/><stop offset="1" stop-color="#293942"/></linearGradient><linearGradient id="linear-gradient-5" x1="2836.72" y1="1794.92" x2="2820.37" y2="1812.04" gradientTransform="translate(1494.51 3973.16) rotate(-140.27)" gradientUnits="userSpaceOnUse"><stop offset="0.26" stop-color="#455a65"/><stop offset="1" stop-color="#0f1b21"/></linearGradient><linearGradient id="linear-gradient-6" x1="2848.1" y1="1811.28" x2="2832.16" y2="1827.97" xlink:href="#linear-gradient-5"/><linearGradient id="linear-gradient-7" x1="3171.38" y1="2107.89" x2="3154.25" y2="2125.83" gradientTransform="translate(794.64 4570.7) rotate(-128.48)" xlink:href="#linear-gradient-5"/><linearGradient id="linear-gradient-8" x1="2698.86" y1="1593.11" x2="2655.51" y2="1543.41" gradientTransform="translate(1761.54 3653.37) rotate(-145.2)" gradientUnits="userSpaceOnUse"><stop offset="0" stop-color="#283840"/><stop offset="1" stop-color="#0f1b21"/></linearGradient><linearGradient id="linear-gradient-9" x1="6639.78" y1="245.67" x2="6730.18" y2="245.67" gradientTransform="matrix(1, 0, 0, -1, -6442.25, 1094.43)" gradientUnits="userSpaceOnUse"><stop offset="0" stop-color="#3b2314"/><stop offset="1" stop-color="#754c28"/></linearGradient><linearGradient id="linear-gradient-10" x1="6481.88" y1="320.42" x2="6677.78" y2="320.42" gradientTransform="matrix(1, 0, 0, -1, -6442.25, 1094.43)" xlink:href="#linear-gradient-3"/><linearGradient id="linear-gradient-11" x1="6489.27" y1="316.57" x2="6694.78" y2="316.57" gradientTransform="matrix(1, 0, 0, -1, -6442.25, 1094.43)" gradientUnits="userSpaceOnUse"><stop offset="0" stop-color="#fff"/><stop offset="1" stop-color="#293942"/></linearGradient><linearGradient id="linear-gradient-12" x1="6708.5" y1="244.31" x2="6670.81" y2="283.78" gradientTransform="matrix(1, 0, 0, -1, -6442.25, 1094.43)" xlink:href="#linear-gradient-5"/><linearGradient id="linear-gradient-13" x1="6768.97" y1="253.47" x2="6876.57" y2="253.47" gradientTransform="matrix(1, 0, 0, -1, -6442.24, 1094.43)" gradientUnits="userSpaceOnUse"><stop offset="0" stop-color="#293942"/><stop offset="1" stop-color="#0f1b21"/></linearGradient><linearGradient id="linear-gradient-14" x1="6947.39" y1="369.55" x2="6506.71" y2="347.74" gradientTransform="matrix(1, 0, 0, -1, -6442.25, 1094.43)" gradientUnits="userSpaceOnUse"><stop offset="0.26" stop-color="#293942"/><stop offset="1" stop-color="#29373e"/></linearGradient><linearGradient id="linear-gradient-15" x1="6690.78" y1="354.82" x2="6849.18" y2="354.82" gradientTransform="matrix(1, 0, 0, -1, -6442.25, 1094.43)" xlink:href="#linear-gradient-13"/><linearGradient id="linear-gradient-16" x1="6581.38" y1="342.67" x2="6763.57" y2="342.67" gradientTransform="matrix(1, 0, 0, -1, -6442.25, 1094.43)" gradientUnits="userSpaceOnUse"><stop offset="0" stop-color="#293942"/><stop offset="1" stop-color="#162329"/></linearGradient><linearGradient id="linear-gradient-17" x1="6668.18" y1="308.62" x2="6846.07" y2="308.62" gradientTransform="matrix(1, 0, 0, -1, -6442.25, 1094.43)" xlink:href="#linear-gradient-13"/><linearGradient id="linear-gradient-18" x1="6845.57" y1="349.07" x2="6925.57" y2="349.07" gradientTransform="matrix(1, 0, 0, -1, -6442.25, 1094.43)" xlink:href="#linear-gradient-13"/><linearGradient id="linear-gradient-19" x1="6913.98" y1="587.02" x2="6939.45" y2="587.02" gradientTransform="matrix(1, 0, 0, -1, -6442.25, 1094.43)" gradientUnits="userSpaceOnUse"><stop offset="0.34" stop-color="#0d1d24"/><stop offset="0.76" stop-color="#322e2f"/></linearGradient><linearGradient id="linear-gradient-20" x1="6979.29" y1="385.39" x2="6489.96" y2="385.39" gradientTransform="matrix(1, -0.01, -0.01, -1, -6438.2, 1139.14)" gradientUnits="userSpaceOnUse"><stop offset="0" stop-color="#929592"/><stop offset="0.39" stop-color="#7b797a"/><stop offset="1" stop-color="#273d44"/></linearGradient><linearGradient id="linear-gradient-21" x1="6878.3" y1="613.34" x2="7000.76" y2="591.47" gradientTransform="matrix(1, -0.01, -0.01, -1, -6438.21, 1139.14)" gradientUnits="userSpaceOnUse"><stop offset="0" stop-color="#0f1b21"/><stop offset="1" stop-color="#293942"/></linearGradient><linearGradient id="linear-gradient-22" x1="6502.96" y1="392.4" x2="6944.98" y2="392.4" gradientTransform="matrix(1, -0.01, -0.01, -1, -6438.2, 1139.14)" gradientUnits="userSpaceOnUse"><stop offset="0" stop-color="#f2c086"/><stop offset="0.09" stop-color="#d37a6d"/><stop offset="0.32" stop-color="#cfd0d2"/><stop offset="0.96" stop-color="#a6a8ab"/><stop offset="0.96" stop-color="#b5ada3"/><stop offset="0.97" stop-color="#d0b596"/><stop offset="0.98" stop-color="#e3bb8d"/><stop offset="0.99" stop-color="#eebf87"/><stop offset="1" stop-color="#f2c085"/></linearGradient><linearGradient id="linear-gradient-23" x1="6508.88" y1="442.05" x2="6610.61" y2="442.05" gradientTransform="matrix(1, -0.01, -0.01, -1, -6438.2, 1139.14)" gradientUnits="userSpaceOnUse"><stop offset="0.42" stop-color="#4e5663"/><stop offset="0.67" stop-color="#273d44"/><stop offset="1" stop-color="#273d44"/></linearGradient><radialGradient id="radial-gradient" cx="6791.03" cy="603.05" r="184.97" gradientTransform="matrix(1, -0.01, -0.01, -1, -6438.2, 1139.14)" gradientUnits="userSpaceOnUse"><stop offset="0" stop-color="#0f1b21" stop-opacity="0"/><stop offset="0.68" stop-color="#0f1b21" stop-opacity="0.65"/><stop offset="0.76" stop-color="#19272e" stop-opacity="0.74"/><stop offset="0.89" stop-color="#24343b" stop-opacity="0.88"/><stop offset="1" stop-color="#283840"/></radialGradient><linearGradient id="linear-gradient-24" x1="6870.68" y1="577.52" x2="6892.64" y2="577.52" gradientTransform="matrix(1, 0, 0, -1, -6442.25, 1094.43)" xlink:href="#linear-gradient-13"/><linearGradient id="linear-gradient-25" x1="6731.63" y1="577.42" x2="6760.17" y2="577.42" gradientTransform="matrix(1, 0, 0, -1, -6442.25, 1094.43)" xlink:href="#linear-gradient-13"/><linearGradient id="linear-gradient-26" x1="6866.67" y1="629.04" x2="6910.57" y2="629.04" gradientTransform="matrix(1, 0, 0, -1, -6442.24, 1094.43)" gradientUnits="userSpaceOnUse"><stop offset="0" stop-color="#a0a2a4"/><stop offset="1" stop-color="#9d867b"/></linearGradient><radialGradient id="radial-gradient-2" cx="6762.19" cy="508.73" r="156.3" gradientTransform="matrix(1, 0, 0, -1.41, -6442.24, 1237.92)" gradientUnits="userSpaceOnUse"><stop offset="0" stop-color="#e6e7e8"/><stop offset="0.17" stop-color="#e3e4e5"/><stop offset="0.32" stop-color="#d8dbdc"/><stop offset="0.45" stop-color="#c6cbcd"/><stop offset="0.59" stop-color="#adb5b7"/><stop offset="0.71" stop-color="#8d989c"/><stop offset="0.84" stop-color="#66757a"/><stop offset="0.96" stop-color="#384c52"/><stop offset="1" stop-color="#273d44"/></radialGradient><linearGradient id="linear-gradient-27" x1="6920.08" y1="566.82" x2="6649.07" y2="566.82" gradientTransform="matrix(1, 0, 0, -1, -6442.24, 1094.43)" gradientUnits="userSpaceOnUse"><stop offset="0" stop-color="#e6968b"/><stop offset="0.47" stop-color="#a4a7a9"/><stop offset="0.71" stop-color="#a8acad"/><stop offset="0.98" stop-color="#293942"/></linearGradient><linearGradient id="linear-gradient-28" x1="6929.67" y1="531.58" x2="6819.25" y2="566.06" xlink:href="#linear-gradient-27"/><linearGradient id="linear-gradient-29" x1="6971.53" y1="475.05" x2="6584.19" y2="468.39" gradientTransform="matrix(1, -0.01, -0.01, -1, -6438.2, 1139.14)" gradientUnits="userSpaceOnUse"><stop offset="0.38" stop-color="#293942"/><stop offset="1" stop-color="#1f2c32"/></linearGradient><linearGradient id="linear-gradient-30" x1="6590.06" y1="908.63" x2="6848.71" y2="168.97" gradientTransform="matrix(1, 0, 0, -1, -6442.24, 1094.43)" gradientUnits="userSpaceOnUse"><stop offset="0" stop-color="#4e5663"/><stop offset="0.67" stop-color="#283841"/><stop offset="1" stop-color="#0f1b21"/></linearGradient></defs><title>home-bg</title><g class="cls-2"><polygon class="cls-3" points="95.83 818.51 159.93 795.51 437.32 836.71 468.73 937.91 464.73 956.61 437.32 967.41 390.52 979.21 331.93 984.11 154.63 968.21 101.13 950.41 88.83 902.81 95.83 818.51"/><polygon class="cls-4" points="95.53 749.51 348.93 787.41 410.73 732.21 494.32 737.51 514.02 747.81 522.63 795.51 492.13 909.41 469.63 960.11 452.02 961.61 436.82 953.71 416.02 936.81 365.43 919.11 334.02 919.11 234.32 951.11 202.43 967.11 139.13 945.01 91.72 926.11 59.52 877.91 47.02 835.01 42.52 794.01 50.23 757.51 95.53 749.51"/><polygon class="cls-5" points="457.63 805.61 464.43 780.31 468.43 750.11 464.63 731.01 461.23 737.01 463.23 752.41 458.93 779.41 450.82 802.81 457.63 805.61"/><polygon class="cls-6" points="448.73 794.31 485.82 808.51 486.13 826.31 474.82 853.31 461.02 868.01 416.13 857.71 429.13 817.01 436.23 797.21 448.73 794.31"/><polygon class="cls-7" points="464.63 731.01 467.13 749.81 465.52 769.11 462.32 785.01 457.23 797.51 445.73 825.21 470.32 837.61 481.23 807.21 486.13 793.61 489.52 774.91 490.43 755.01 489.43 736.31 464.63 731.01"/><polygon class="cls-8" points="465.52 769.11 489.43 775.51 488.93 777.81 465.13 771.31 465.52 769.11"/><polygon class="cls-9" points="466.93 749.81 490.43 755.01 490.43 757.41 466.82 751.11 466.93 749.81"/><polygon class="cls-10" points="462.32 785.01 486.13 793.61 485.63 795.51 461.82 786.81 462.32 785.01"/><polygon class="cls-11" points="472.73 850.31 447.23 859.91 433.93 837.61 445.73 803.91 483.32 817.31 472.73 850.31"/><polygon class="cls-12" points="225.32 839.91 219.32 865.51 240.72 884.01 287.93 871.51 284.93 877.41 235.43 896.01 206.72 866.41 212.93 843.21 197.53 816.91 199.82 808.71 204.93 801.51 225.32 839.91"/><polygon class="cls-13" points="70.83 741.11 102.92 734.91 134.53 739.21 162.93 748.01 195.72 766.51 235.53 810.41 223.13 812.01 215.13 813.11 190.72 790.51 169.32 774.91 143.72 761.41 121.03 754.21 95.22 750.31 52.92 760.51 42.52 794.01 39.63 775.51 47.02 752.31 70.83 741.11"/><polygon class="cls-6" points="246.93 796.61 258.02 801.61 278.73 835.41 287.13 858.71 287.93 871.51 237.43 890.51 212.32 865.41 220.53 842.01 199.82 808.71 204.93 801.51 246.93 796.61"/><polygon class="cls-14" points="83.42 735.51 47.02 752.31 93.92 741.51 120.53 744.61 151.32 754.71 177.53 768.71 192.82 783.11 230.22 824.11 252.53 819.91 241.43 799.61 224.43 780.51 206.93 762.01 184.32 748.41 159.22 736.61 127.42 731.61 83.42 735.51"/><polygon class="cls-15" points="235.22 845.11 263.13 852.31 269.93 837.61 251.53 807.21 212.13 812.81 235.22 845.11"/><polygon class="cls-16" points="130.03 732.01 127.83 731.61 93.92 741.51 97.03 741.81 130.03 732.01"/><polygon class="cls-16" points="160.93 737.41 159.22 736.61 120.53 744.61 122.92 745.41 160.93 737.41"/><polygon class="cls-16" points="184.82 748.81 182.93 747.81 151.63 754.81 153.22 755.71 184.82 748.81"/><polygon class="cls-16" points="208.13 763.61 206.93 762.01 177.53 768.71 179.32 770.41 208.13 763.61"/><polygon class="cls-16" points="223.63 779.71 222.03 777.91 192.82 783.11 194.72 785.41 223.63 779.71"/><g id="left_arm" data-name="left arm"><polygon class="cls-17" points="490.13 748.91 489.52 774.91 486.13 800.01 482.02 816.41 473.43 842.51 450.63 836.51 428.43 833.71 376.52 843.51 353.13 869.41 314.13 902.91 360.82 939.11 411.32 959.71 461.63 963.91 505.02 944.51 532.02 923.11 550.33 890.51 553.63 854.91 549.42 795.51 535.52 764.71 519.42 748.41 494.32 737.51 492.93 743.61 490.13 748.91"/><polygon class="cls-6" points="386.82 835.41 470.93 838.61 471.52 845.31 448.32 865.21 386.93 841.21 386.82 835.41"/><polygon class="cls-18" points="386.82 835.41 447.82 858.51 470.93 838.61 412.82 820.61 386.82 835.41"/><polygon class="cls-19" points="517.42 742.61 538.63 768.41 552.02 804.91 556.23 843.01 552.83 844.71 546.13 829.11 535.73 791.81 532.33 780.01 529.33 774.71 520.73 759.61 494.32 737.51 517.42 742.61"/><polygon class="cls-19" points="517.42 742.61 529.63 753.01 541.83 771.71 552.83 805.61 558.02 838.21 556.23 843.01 549.42 826.11 539.02 787.91 532.52 771.91 523.63 757.41 501.13 739.01 517.42 742.61"/></g><g id="right_arm" data-name="right arm"><path class="cls-17" d="M50,828l0.1-41.2,37.7-34.1s34.1,0.5,47.7,3.7,52.7,25.4,52.7,25.4l28.3,30.8,9.2,18.5,101.1-17.8,36.3-10.4,51.5,17.5,19.4,6.8-30.1,22.9L368,896l-68.2,54.9-86.5,10.7-65-28.4-51.7-27-34.7-46.3L50,828h0Z"/><polygon class="cls-20" points="367.93 896.01 299.82 951.01 213.32 961.71 148.22 933.21 135.82 926.71 216.22 953.91 298.43 941.51 329.13 921.31 378.13 883.61 367.93 896.01"/><path class="cls-21" d="M364.23,798.31l37.9,3.3,32.2,25.6-28.8,21.6-27.4,34.8s-7.4-25.9-19.8-42.6c-14.4-19.5-31.6-27.9-31.6-27.9Z"/><polygon class="cls-6" points="230.32 830.31 230.32 838.21 254.82 860.31 326.63 839.11 326.52 832.11 300.02 812.81 230.32 830.31"/><polygon class="cls-18" points="230.32 830.31 254.82 852.41 326.52 832.11 300.02 812.81 230.32 830.31"/></g><g id="neck_tube" data-name="neck tube"><polygon class="cls-22" points="461.63 709.51 404.32 716.21 148.53 706.61 82.83 690.21 79.53 673.31 69.72 698.21 58.63 704.61 66.42 731.91 53.02 749.51 69.92 742.31 103.22 736.71 141.43 742.71 188.43 763.71 240.22 789.71 341.52 805.61 364.23 798.41 420.13 788.01 456.13 789.51 477.02 774.81 479.82 762.51 486.93 755.01 492.93 743.61 495.63 731.81 510.73 709.51 461.63 709.51"/><polygon class="cls-23" points="372.73 736.51 329.43 738.81 285.73 739.21 270.23 734.61 248.53 733.11 259.43 738.51 288.52 745.01 323.43 746.11 376.63 739.61 406.93 733.71 372.73 736.51"/><polygon class="cls-24" points="139.13 740.11 169.13 752.21 238.53 758.31 261.02 757.91 300.73 767.91 321.32 768.41 301.93 755.31 258.43 740.21 199.03 735.11 139.13 740.11"/><polygon class="cls-25" points="240.22 789.71 336.02 798.31 377.23 785.11 403.82 773.31 329.82 787.71 294.32 783.41 263.32 785.21 225.93 782.41 240.22 789.71"/><polygon class="cls-26" points="457.93 744.51 438.43 752.51 403.32 763.51 429.52 749.51 483.32 727.21 457.93 744.51"/></g><g id="space_yeti" data-name="space yeti"><path class="cls-27" d="M565.53,350.71c14.5,33,18,65.2,18.4,106,0.7,76-31,152.2-67,191l-2.9.5-82.4,14.2-111.4,1.1-51.1-4.1L234.93,572l-89.8-43.4-15-120.3,108.6-88,170.7-47.7,130.4,26.7Z"/><polygon class="cls-28" points="497.13 498.41 496.63 511.31 471.73 516.41 471.73 503.71 497.13 498.41"/><path class="cls-6" d="M431.93,261a1.42,1.42,0,0,0-.6.2c-2.7,1.9,5,17.9,17.3,35.8s24.5,30.8,27.2,28.9l0.2-.2h0c0.1,0,.1-0.1.2-0.1,41.8-28.6,57.7-64.2,49-105.9-2.3-11-10.5-31.7-18.6-44.3-7.3-11.5-15.3-11.5-14.7.1C493.93,212.91,462.23,240.31,431.93,261Z"/><path class="cls-6" d="M521.73,684.61l0.2,18.5c0.1,15.1-104.3,28.4-233.3,29.6s-233.7-9.9-233.8-25l-0.2-18.5Z"/><path class="cls-29" d="M287.93,659.51c-129,1.3-233.4,14.5-233.3,29.6s104.8,26.3,233.8,25,233.4-14.5,233.3-29.6S416.83,658.31,287.93,659.51Z"/><polygon class="cls-30" points="353.43 697.11 236.03 688.11 123.03 621.11 54.13 479.21 48.73 341.61 188.63 224.71 304.63 171.71 439.52 204.91 527.33 281.11 560.23 325.41 564.23 341.81 561.63 347.81 545.73 375.11 515.33 407.71 462.43 449.01 462.52 458.91 459.43 520.71 524.92 570.51 517.33 647.51 353.43 697.11"/><path class="cls-31" d="M430.23,663.81l36.6-4.3,37.8-5.9,0.3,27.2c0.1,11.6-97.7,21.9-218.5,23.1s-218.8-7.2-218.9-18.8l-0.3-27.2Z"/><path class="cls-32" d="M175.63,673.31c-65.8-3.5-108.2-9.8-108.3-17.4s42.3-14.8,108.3-19.9v37.3h0Z"/><path class="cls-17" d="M504.63,653.41l0.3,30.9c0.1,11.6-97.7,20.8-218.5,22s-218.8-9.8-218.9-21.4l-0.3-29.1c0.1,5.4,28.7,13.4,106.5,17.3l-5.6-9.5-24.4-5.7-28.5-7.1c-10.5-9.8-39-39.1-39-39.1l-17.3-26.3,78.3-56,50,18.7,44.1,21.6,22.3,58.1,14.7,38.1,159.7,8.6C428.73,673.51,504.63,654.51,504.63,653.41Z"/><path class="cls-17" d="M12.53,448.11c-1.5-153.3,123.8-284.9,276.9-293.3,90.5-4.9,170.4,27.2,195,83.9l-110.7,4.1-260.9,145.7S12.83,479.11,12.53,448.11Z"/><path class="cls-6" d="M112.93,260.51c0.2,0,1.8,1.4,2,1.5,3,1.9-1.8,19.8-14.4,39s-28,32.1-30.9,30.2c-0.1-.1-2.1-1.5-2.2-1.5-44.8-29.5-62.3-66.8-54-111.1,2.2-11.7,9.4-33.4,18.7-47.3,7.9-11.8,15.3-10.5,15.6-.2C48.83,210.91,80.63,239,112.93,260.51Z"/><path class="cls-33" d="M109.13,640.41c17.8,11.6,59,23.3,59,23.3v3.7s-47.5-3.7-66.3-6.5c-9.5-1.4-18.8-3.1-22.7-4.7-3.2-1.4-3.3-1.2-4.2-6.5s-9.2-53.4-9.2-53.4S84.23,624.11,109.13,640.41Z"/><path class="cls-34" d="M432.93,312.71l-106.4,30.5a113.55,113.55,0,0,0-27.7,7.4c-15.6,6.2-59.9,33.3-59.9,33.3s-23.9,17.9-27.1,22.7c-2.6,4-17.3,34.9-18.1,45.3s11.3,91.7,11.3,91.7l36.5,17.5,32.9,97.8,50.8,5.8h108.9l49.7-7.7s-4.6-92.8-3.2-133.9,15.5-116.3,15.5-116.3l9.4-11.4L531,384l-15.2-17.9-31.4-5.8,25.2-19.3-33.9-10.9-27.1,8.2Z"/><path class="cls-35" d="M151.53,530.61l-14.3-124.1,6-47.2,162.9-65,55-16.8,33.5-2.6,37.7-1.7,61.8,6.2,54.4,28.2,14.9,36.3-1.7,3.9-15.9,27.3-30.5,32.6L493,425.11l3.1-18.2,9.4-11.4,25.5-11.4-15.2-17.9-31.4-5.8,25.2-19.3s-23.7-5.9-32.4-5.9-28.6,3.1-28.6,3.1l-19.2-7.6-67.9,3.2s-48.5,10.8-62.8,16.7-59.9,33.3-59.9,33.3-23.5,17.3-27.1,22.7-16.7,35-18.1,45.3,12.6,101.6,12.6,101.6Z"/><g class="cls-36"><polygon class="cls-37" points="379.63 639.11 358.43 628.61 352.32 633.21 334.63 617.51 355.13 646.61 360.43 639.81 380.52 648.61 391.73 638.81 400.63 643.61 409.93 621.21 409.23 620.21 399.52 635.91 392.32 629.71 379.63 639.11"/></g><g class="cls-38"><path class="cls-39" d="M431.63,541c-4.6-5.4-7.5-13.7-7.5-23,0-16.3,9-29.5,20-29.5s20,13.2,20,29.5c0,11-4,20.5-10,25.6-0.2,0-.5-0.1-0.7-0.1a43.51,43.51,0,0,0-15.9-2.8C435.53,540.71,433.53,540.91,431.63,541Z"/><ellipse class="cls-40" cx="439.43" cy="516.91" rx="11" ry="18"/><ellipse class="cls-39" cx="435.33" cy="503.71" rx="4.1" ry="6.8"/></g><g class="cls-36"><path class="cls-39" d="M296.63,547.91c-6.8-6.5-11.3-17.4-11.3-29.8,0-20.1,11.8-36.4,26.4-36.4s26.4,16.3,26.4,36.4c0,10.6-3.3,20.1-8.6,26.8a80.22,80.22,0,0,0-10-.6A67.94,67.94,0,0,0,296.63,547.91Z"/><ellipse class="cls-41" cx="303.62" cy="517.01" rx="14.3" ry="21"/><ellipse class="cls-39" cx="297.12" cy="502.01" rx="5.3" ry="7.9"/></g><path class="cls-37" d="M287.33,455.41a30.3,30.3,0,0,1,29.7-14.1c12,1.6,21.3,10.4,24.7,21.7a55.64,55.64,0,0,0-26.3-10.6A54.94,54.94,0,0,0,287.33,455.41Z"/><path class="cls-42" d="M424.43,477.21c1.2-11.2,7.7-20.5,17.4-23s19.9,2.4,26.5,11.6A41.7,41.7,0,0,0,424.43,477.21Z"/><path class="cls-43" d="M404.33,596.71c-4.2,3.2-14.4,7.7-14.4,7.7,18.7-3.2,26-10.4,26-10.4-3.4-2.4-6.8-15.2-6.8-15.2a15.38,15.38,0,0,0-1.7,6,34.35,34.35,0,0,0-.1,6.5c-38.4,7.2-62.8,6.7-61.3,7.2C362,604.31,404.23,596.81,404.33,596.71Z"/><path class="cls-44" d="M479.63,589.41c0.5-2.9.9-5.9,1.3-8.9,0.9,40.7,2.8,73.9,2.8,73.9l-14,2.7-11.6,1.8C468,647.11,474.83,620.91,479.63,589.41Z"/><path class="cls-45" d="M294.23,639.71l39.5,23.3-27.3-1.1-32.7-4.7-32.3-95.9-36.5-17.5s-12.6-79.2-11.3-91.7,15.9-41.2,18.1-45.3,27.1-22.7,27.1-22.7l37.4-21.7,15.5-8.3a104,104,0,0,1,16.6-6.3c2.9-.8,6.4-2,9.4-2.7a88.55,88.55,0,0,1,8.8-1.7l-30,17.3-22.3,14.9L251.93,393l-12.2,18-12.5,34.2,4.1,42.7,10.3,47.4,17.2,40.6Z"/><polygon class="cls-44" points="392.32 348.51 398.02 345.81 448.02 332.21 453.52 339.21 458.52 362.11 460.73 391.11 426.82 364.71 401.93 351.51 392.32 348.51"/><path class="cls-34" d="M326.43,343.41s43-30,55.5-31.7c7.8-1.1,44.8-7.2,44.8-7.2s12.2,11.4,15.4,15c8.6,9.7,11.9,21,14.3,27.8,2,5.7,3.7,34.2,3.7,34.2s-18.6-17.6-28-22.7-27.7-9.3-27.7-9.3"/><g class="cls-38"><path class="cls-46" d="M433,504c9.3-1.4,24.4-1.2,24.4-1.2s16.8,2.6,23.8,7l1.1-12.4-5.9-1.3-16.5-2.8s-18.9-.8-28.9.2-30.8,7.8-30.8,7.8a50.38,50.38,0,0,0-13.4-2.4,99.07,99.07,0,0,0-12.8,1s-16.5-16.6-77.2-11.7c-23.3,1.9-63.3,8.7-63.3,8.7l-34.7,6.9L201,517l45.7-8.4,5.6-.3,1.9,12.5s7.2,28.6,9.1,34.4,11.5,10.2,21.2,11.2,28.1,1.5,28.1,1.5l37-5.2s7.7-1.8,12.1-6.8,6.8-13.7,6.8-13.7l4.5-26.1s8.1-4.6,14.3-4.6a13.61,13.61,0,0,1,3.6.5h0l12.7,3.6,6.6-4.2a19.29,19.29,0,0,1,6.3-3.4A86.17,86.17,0,0,1,433,504Zm-73.7,26.6c-0.8,7-2.7,16.2-7.6,19.6s-40.2,7-40.2,7l-27.6-1.7s-8.3-1.8-9.8-6.6c-1-3.3-9.2-32-9.1-37.3s5.1-7.6,5.1-7.6a130.3,130.3,0,0,1,34.7-6c18.7-.5,44.5,5.6,44.5,5.6s11.5,2.4,12.3,4.4-1.4,15.7-2.3,22.6h0Z"/><path class="cls-47" d="M480.53,555c-6.1,2.2-26.3,6.6-31.1,6.9-6,.4-17.5-0.6-17.5-0.6s-11.7-1.8-15.8-2.7l-5.3-17.8c0.1,0.2,8.7,7,8.8,7.1,9.5,9.2,41.4,5.3,50.6-.2,1.1-.6,9.1-3.8,10.1-5.1Z"/></g><path class="cls-6" d="M495.13,493s-17.3-5.5-29.1-6.4a152.89,152.89,0,0,0-36.2,1.1c-9.9,1.5-24.8,8.3-24.8,8.3a29.78,29.78,0,0,0-12.1-3.1c-6.2,0-16.4,2.2-16.4,2.2s-12.3-18.7-73-13.8c-14.1,1.1-24.1,4.1-36.2,6.3-8,1.4-16.9,3.2-30.5,5.2-11.2,1.6-38.4,7.2-38.4,7.2l1.7,12.8,53.7-9.5,5.6-.3s1.2,5.9,1.9,12.5c1.2,10.6,6,23.4,7.6,29.3,3,10.9,15.1,15.6,22.7,16.2s16.6,1.5,28.1,1.5,25.8-1.7,32.2-3.6,9.1-2.4,13.5-7.4,5.5-14.3,5.5-14.3l6.7-26.5s8.1-4.6,14.3-4.6a17.44,17.44,0,0,1,10.6,3.9s5.4,24.2,7.3,28.7,3.3,7.6,7.9,11.7,18.8,5.4,18.8,5.4,11.4,1,17.5.6,23.9-4.9,26.5-7c3.8-3.1,7.4-10.4,9-14.4s6.2-23.1,6.2-23.1l4.6-6.4s3.6-7.4,2.2-9.2S495.13,493,495.13,493Zm-131.8,32c-1.8,7.2-3.6,19.3-8.4,22.7-6,4.3-36.1,4.2-36.1,4.2l-24.5-1.5s-10.8-1-14-10.1c-1.1-3.2-6.3-23-6.8-34.7-0.2-5.4,3.9-6.9,3.9-6.9a135.16,135.16,0,0,1,34.7-6,181.49,181.49,0,0,1,40.9,3.6c4.8,1.1,12.4,4.4,13.3,6.4,1.5,3.1-1.2,15.3-3,22.3h0Zm111.6,17.2c-9.2,5.5-41.1,9.4-50.6.2-6.2-6-11.9-29.2-11.3-33.3s8.3-6.5,8.3-6.5a54.82,54.82,0,0,1,16.4-5,92.32,92.32,0,0,1,23.9-.6c8.9,0.8,16.7,2.4,21.8,5,5.4,2.7,4,5.7,2.7,11.6C484.33,521.91,481.53,538.21,474.93,542.21Z"/><path class="cls-27" d="M565.53,350.71c14.5,33,18,65.2,18.4,106,0.7,76-31,152.2-67,191l-2.9.5-82.4,14.2-111.4,1.1-51.1-4.1L234.93,572l-89.8-43.4-15-120.3,108.6-88,170.7-47.7,130.4,26.7Z"/><path class="cls-48" d="M122.63,528.61l96.5,45.3,32.7,106.3s33.3,2.3,68.5,4.2,82.6,0.2,111.2-2,72.7-13.8,72.7-13.8l12.9-21.2s-57.6,12.9-83.6,14.4-73.8,2.8-99.8,1.1-60-5.9-60-5.9l-32.3-95.9-88.3-42.3Z"/><path class="cls-6" d="M158.53,467.91c3,65.4-21.3,119.5-59.5,123.2-5,.4-31.7-3.5-31.7-3.5l-6.7-8.2c-22-18.7-39.1-55-43.2-98-4.3-45.2,6.8-85.9,26.7-107.8l12.2-16.4s13.6-1,18.6-1.2C113.23,354.71,155.53,402.11,158.53,467.91Z"/><path class="cls-17" d="M54,357.41c-35.4,3.4-59.1,57.8-53,121.4s39.7,112.5,75.1,109.1,59.1-57.7,53-121.4S89.33,354,54,357.41Z"/><path class="cls-6" d="M88.33,475.51c3,31.2-10.4,57.9-29.9,59.8L57.23,523c-15.2,1.5-29.5-17.1-31.8-41.4s8.2-45.2,23.4-46.7l-1.2-12.3C67.13,420.71,85.33,444.31,88.33,475.51Z"/><path class="cls-6" d="M567.43,319.81c3.9,11.7-4.4,24.3-4.4,24.3l-2.1-4.4-8-14.8-7.8-14.6-0.1-.1c-33.8-19.2-80.3-25.9-110.5-25.6-131.1,1.3-225.8,49.1-294,122.1,0,0.1-3.4.4-3.4,0.4l-11.4-.4s-12.1-37.8-26.6-43.7c40.2-106.1,150.4-196.3,291.1-182.4C481.93,189.61,546,262.11,567.43,319.81Z"/><path class="cls-18" d="M559.83,298.81c4.4,8.3,13.2,21.5,8.2,33.4,1.1-10.6-10.5-22.5-19.2-27.8a172.21,172.21,0,0,0-34.5-15.5c-28.7-9.5-60.4-13.6-82.2-13.4-135.5,1.3-237.6,54.3-306.4,131.3-10.3-20.1-20.8-35.3-37-44.9,40.2-106,160.7-203,301.4-189.1C469.73,180.61,530.93,244.51,559.83,298.81Z"/></g><path class="cls-19" d="M97.43,879.11c8.7,4.4,18.8,8.1,31.9,6.5,11.1-1.4,17.9-7.5,22.7-15.3s11.1-24,7.9-44.9-7.9-28.7-15.5-41.2-17.4-24.5-29.9-28.6c-10.3-3.4-17.9-3.7-27.5-1.7s-13.3,4.4-20.6,10.7-8.8,9.5-12.8,22-0.8,26.2,1.9,40.2,7.7,21.2,15.6,30.6S88.83,874.71,97.43,879.11Z"/><path class="cls-19" d="M90.83,879.11c8.7,4.4,18.8,8.1,31.9,6.5,11.1-1.4,17.9-7.5,22.7-15.3s11.1-24,7.9-44.9-7.9-28.7-15.5-41.2-17.4-24.5-29.9-28.6c-10.3-3.4-17.8-3.7-27.5-1.7s-13.3,4.4-20.6,10.7-8.8,9.5-12.8,22-0.8,26.2,1.9,40.2,7.7,21.2,15.6,30.6S82.13,874.71,90.83,879.11Z"/><path class="cls-6" d="M81.63,832.21c-11.5-17.9-14.1-36.4-1.3-45a16.92,16.92,0,0,1,16.8-1.3l1.7,10.4c-4.5-1.8-8.3-2.2-12.4.5-7.2,5-5.3,17.4,1.6,28.2a5.91,5.91,0,0,0,1.2,1.7c-0.5-5.5.9-13.2,6-16.6,7.8-5.2,19.1-2.9,27.5,10.3,7.2,11.6,7.1,25.1-2.5,31.6C107.33,860.91,92.73,849.61,81.63,832.21Zm33.6-5.8c-4.8-7.7-11.4-8.4-16-5.2-3.6,2.5-5.5,7.7-4.7,13.5,4.6,6.5,12.2,12.6,18.9,8.2,5.7-3.5,5-11.4,1.8-16.5h0Z"/><path class="cls-49" d="M548.73,601.91c0.2-.3.3-0.6,0.5-0.9,0.3-.5.6-1.1,0.9-1.7,17.9-35.1,31.2-79,33.8-124,0.4-7.4.7-14.8,0.6-22.2-0.1-9.5-.5-18.7-1.3-27.7-1.8-25.2-6-47.6-15.2-70.1q-2.1-5.55-4.5-11.1l0.2-.4,0.4-.8a42.22,42.22,0,0,0,4.2-10.9h0c4.9-11.9-3.7-25.1-8-33.4a272.11,272.11,0,0,0-32.8-48.7,101.45,101.45,0,0,0-1.9-30.3c-2.3-11-10.5-31.7-18.6-44.3-7.3-11.5-15.3-11.5-14.7.1V176c-1.5,1.2-2.4,3.8-2.2,7.9a58.92,58.92,0,0,1-1.3,15.8,68.09,68.09,0,0,1-4.2,9.6c-18.9-14-40.2-25.2-63.5-31.6-3-1.4-6-2.8-9.1-4.1-2.1-.9-4.3-1.8-6.5-2.6a248.08,248.08,0,0,0-42.8-11.8c-2.6-.5-5.1-0.9-7.7-1.3q-11.55-1.8-23.7-2.7a337.15,337.15,0,0,0-41.5-.3c-2.4.1-4.8,0.3-7.2,0.5-73.5,5.9-140.1,40.1-188.7,91.2-20.9-16.4-38.7-36.3-44.2-61.4a75.3,75.3,0,0,1-.7-8.3,12.65,12.65,0,0,0-1-5.2v-0.5c-0.3-10.3-7.7-11.6-15.6.2-9.3,13.8-16.5,35.6-18.7,47.3a105,105,0,0,0-.2,39.1c3.3,20.9,14.7,37.9,32.6,55.2-10.5,20.3-20.1,44.8-25.5,67.3-10.8,15.8-17.9,38.7-19.8,65a204.38,204.38,0,0,0,0,36.7c4.7,52.8,30.2,92.8,58.4,103.6h0l9.3,14.3-2.5-3.6s8,45.7,9.4,53.9c-5.4,2.1-7.1,3.6-7.6,5-0.2,2.1-.2,4.2-0.2,4.2l0.1,20.8c-4.7,1.8-10,4.5-11.6,6.4-1.7,1.2-1.1,2.9-1.1,4.5l0.2,16.6c0,2.7,2.3,4.3,6.5,6.2l5.1,18.1-13.3,17.5-6.2,2.9-7.4,23.2,2.9,18.4,4.4,41,12.5,42.9,32.2,48.2,3.5,1.4,3.3,12.6-4.9,1.7V969l7.6,4.5,0.3,0.1,0.6,51.9,7.5,56.4h-0.2l1.3,26.8,5.1,58.9,10.3,18,14.2,19.4,9.2,10.5,12.1,16.2,31.1,9.4,3,0.3,2,0.3v-0.1l27,2.9v0.1l3,0.2,4.1,0.4,23.5-6.6,6.1-1.5v-0.2l0.6-.2,18.3-13.6,5.9-21.6-5.8-15.3-1.4-.4-10.5-25.8-2.9-8.8,0.8,2.5,1-2.6-5.1-11.4-0.5-.1,15.2-46.3,15.6-40.9,14.4-.2,7,11.3,4.8,17.9,0.3,0.1,4.7,24.7,2.8,44.8,33.4,25.9,42.2,20.2v1.5l23.7,10.8,32.4,1,6.8,0.2,29-7.9,9.2-18.4-2.3-19.7-13-16.9H485l-5.7-7.3-9.4-10.6-0.2-3.7-10.9-9.9,2.3-40.1,7.7-51.5,2.9-48.9L480,970l1-14.3c4.8-2.2,9.7-4.5,14-6.4l10.2-4.6,0.4-.3a5.18,5.18,0,0,1,.5-0.3c0.6-.5,26.1-20.7,26.1-20.7l-0.6.3,0.6-.5,18.3-32.6,3.4-35.6-0.7-10.2,3.3-1.7,1.8-4.8-5.2-32.6-10.9-33.9-12.3-18.7-12.2-10.4-16.3-3.6h0l-6.8-1.5h-0.1l1.3-5.8,13.2-19.6a45.49,45.49,0,0,0,6.9-2.8c4-2,6.1-4.1,6.1-6.3l-0.2-18.5c-0.1-3.6-6.1-7-16.9-10l-0.1-6.5,12.5-20.6C528.33,635.51,538.93,620,548.73,601.91ZM496.23,407s-14.1,75.2-15.5,116.3,3.2,133.9,3.2,133.9l-49.7,7.7H325.33l-50.8-5.8-32.9-97.8-36.5-17.5s-12.1-81.3-11.3-91.7,15.5-41.3,18.1-45.3c3.1-4.8,27.1-22.7,27.1-22.7s44.3-27.1,59.9-33.3a113.55,113.55,0,0,1,27.7-7.4s43-30,55.5-31.7c7.8-1.1,44.8-7.2,44.8-7.2s8,7.4,12.7,12.2h0a17.88,17.88,0,0,0,1.3,1.4l0.3,0.3c0.4,0.4.7,0.8,1,1.1a59.53,59.53,0,0,1,10.5,17.5l23-6.9,33.9,10.9-25.2,19.3,31.4,5.8L531,384l-25.5,11.4Z"/></g></svg>